<svg width="24" height="24" viewBox="0 0 24 24" fill="none" xmlns="http://www.w3.org/2000/svg">
<path d="M20.625 6.75H3.37501C3.16801 6.75 3 6.91798 3 7.12498V18.375C3 19.8225 4.17749 21 5.62501 21H18.375C19.8225 21 21 19.8225 21 18.375V7.12498C21 6.91798 20.832 6.75 20.625 6.75ZM20.25 18.375C20.25 19.4092 19.4093 20.25 18.375 20.25H5.62501C4.59075 20.25 3.75002 19.4092 3.75002 18.375V7.49999H20.25V18.375Z" fill="black" stroke="black"/>
<path d="M12 3C9.93227 3 8.25 4.68226 8.25 6.75001V9.37502C8.25 9.58202 8.41801 9.75003 8.62501 9.75003C8.83202 9.75003 9.00003 9.58202 9.00003 9.37502V6.75001C9.00003 5.09552 10.3455 3.75002 12 3.75002C13.6545 3.75002 15 5.09552 15 6.75001V9.37502C15 9.58202 15.1681 9.75003 15.3751 9.75003C15.5821 9.75003 15.7501 9.58202 15.7501 9.37502V6.75001C15.7501 4.68226 14.0678 3 12 3Z" fill="black" stroke="black"/>
<path d="M8.62695 9C8.00669 9 7.50195 9.50474 7.50195 10.125C7.50195 10.7453 8.00669 11.25 8.62695 11.25C9.24721 11.25 9.75195 10.7453 9.75195 10.125C9.75195 9.50474 9.24721 9 8.62695 9ZM8.62695 10.5C8.42069 10.5 8.25194 10.3312 8.25194 10.125C8.25194 9.9187 8.42069 9.74995 8.62695 9.74995C8.83321 9.74995 9.00197 9.9187 9.00197 10.125C9.00197 10.3312 8.83321 10.5 8.62695 10.5Z" fill="black" stroke="black"/>
<path d="M15.375 9C14.7547 9 14.25 9.50474 14.25 10.125C14.25 10.7453 14.7547 11.25 15.375 11.25C15.9953 11.25 16.5 10.7453 16.5 10.125C16.5 9.50474 15.9953 9 15.375 9ZM15.375 10.5C15.1687 10.5 15 10.3312 15 10.125C15 9.9187 15.1687 9.74995 15.375 9.74995C15.5813 9.74995 15.75 9.9187 15.75 10.125C15.75 10.3312 15.5813 10.5 15.375 10.5Z" fill="black" stroke="black"/>
</svg>
