<svg width="24" height="24" viewBox="0 0 24 24" fill="none" xmlns="http://www.w3.org/2000/svg">
<path d="M11.8386 21C11.53 21 11.2325 20.8957 11.0006 20.7061C10.1249 19.9914 9.28059 19.3198 8.53571 18.7274L8.5319 18.7243C6.34801 16.9873 4.46214 15.4873 3.14999 14.0096C1.6832 12.3576 1 10.7914 1 9.08032C1 7.41788 1.61076 5.88418 2.71966 4.76153C3.84179 3.62561 5.38151 3 7.05569 3C8.30698 3 9.45292 3.36922 10.4616 4.09733C10.9706 4.46486 11.4321 4.91466 11.8386 5.43932C12.2453 4.91466 12.7065 4.46486 13.2157 4.09733C14.2244 3.36922 15.3703 3 16.6216 3C18.2957 3 19.8355 3.62561 20.9577 4.76153C22.0666 5.88418 22.6772 7.41788 22.6772 9.08032C22.6772 10.7914 21.9941 12.3576 20.5273 14.0094C19.2152 15.4873 17.3295 16.9872 15.1459 18.724C14.3997 19.3173 13.5541 19.99 12.6764 20.7064C12.4447 20.8957 12.147 21 11.8386 21ZM7.05569 4.18516C5.74039 4.18516 4.5321 4.67509 3.65308 5.56481C2.76101 6.46796 2.26965 7.71641 2.26965 9.08032C2.26965 10.5194 2.8427 11.8064 4.12757 13.2534C5.36944 14.652 7.21661 16.1212 9.35535 17.8224L9.35932 17.8255C10.107 18.4202 10.9546 19.0944 11.8368 19.8144C12.7242 19.0931 13.5731 18.4177 14.3223 17.8221C16.4609 16.1209 18.3079 14.652 19.5498 13.2534C20.8345 11.8064 21.4075 10.5194 21.4075 9.08032C21.4075 7.71641 20.9162 6.46796 20.0241 5.56481C19.1452 4.67509 17.9368 4.18516 16.6216 4.18516C15.6581 4.18516 14.7735 4.47103 13.9924 5.03475C13.2963 5.53734 12.8114 6.17268 12.5271 6.61723C12.3809 6.84583 12.1235 6.98228 11.8386 6.98228C11.5536 6.98228 11.2963 6.84583 11.1501 6.61723C10.866 6.17268 10.3811 5.53734 9.68479 5.03475C8.90368 4.47103 8.01905 4.18516 7.05569 4.18516Z" fill="black" stroke="black" stroke-width="0.5"/>
</svg>
