<svg width="24" height="24" viewBox="0 0 24 24" fill="none" xmlns="http://www.w3.org/2000/svg">
<path fill-rule="evenodd" clip-rule="evenodd" d="M11.6504 3C6.87291 3 3 6.78737 3 11.4593C3 16.1313 6.87291 19.9187 11.6504 19.9187C13.6936 19.9187 15.5713 19.2259 17.0514 18.0675L19.8631 20.81L19.9379 20.8729C20.199 21.0619 20.569 21.0404 20.8052 20.8088C21.0651 20.554 21.0645 20.1415 20.804 19.8874L18.0255 17.1773C19.4384 15.6716 20.3008 13.664 20.3008 11.4593C20.3008 6.78737 16.4279 3 11.6504 3ZM11.65 4.30273C15.6916 4.30273 18.968 7.50675 18.968 11.4591C18.968 15.4115 15.6916 18.6155 11.65 18.6155C7.60841 18.6155 4.33203 15.4115 4.33203 11.4591C4.33203 7.50675 7.60841 4.30273 11.65 4.30273Z" fill="black"/>
<path d="M17.0514 18.0675L17.226 17.8886L17.0695 17.7359L16.8974 17.8707L17.0514 18.0675ZM19.8631 20.81L19.6885 20.9889L19.6951 20.9953L19.7021 21.0012L19.8631 20.81ZM19.9379 20.8729L19.7769 21.0642L19.7839 21.0701L19.7913 21.0755L19.9379 20.8729ZM20.8052 20.8088L20.6302 20.6303L20.8052 20.8088ZM20.804 19.8874L20.6295 20.0664L20.804 19.8874ZM18.0255 17.1773L17.8432 17.0062L17.6754 17.185L17.8509 17.3563L18.0255 17.1773ZM3.25 11.4593C3.25 6.93068 7.00569 3.25 11.6504 3.25V2.75C6.74013 2.75 2.75 6.64407 2.75 11.4593H3.25ZM11.6504 19.6687C7.00569 19.6687 3.25 15.988 3.25 11.4593H2.75C2.75 16.2746 6.74013 20.1687 11.6504 20.1687V19.6687ZM16.8974 17.8707C15.4601 18.9956 13.6363 19.6687 11.6504 19.6687V20.1687C13.7509 20.1687 15.6826 19.4563 17.2055 18.2644L16.8974 17.8707ZM20.0377 20.631L17.226 17.8886L16.8769 18.2465L19.6885 20.9889L20.0377 20.631ZM20.0989 20.6817L20.0241 20.6187L19.7021 21.0012L19.7769 21.0642L20.0989 20.6817ZM20.6302 20.6303C20.4827 20.7749 20.2487 20.7893 20.0845 20.6704L19.7913 21.0755C20.1492 21.3344 20.6554 21.3058 20.9803 20.9873L20.6302 20.6303ZM20.6295 20.0664C20.7896 20.2226 20.7899 20.4737 20.6302 20.6303L20.9803 20.9873C21.3403 20.6343 21.3395 20.0605 20.9786 19.7085L20.6295 20.0664ZM17.8509 17.3563L20.6295 20.0664L20.9786 19.7085L18.2 16.9983L17.8509 17.3563ZM20.0508 11.4593C20.0508 13.5972 19.2148 15.5445 17.8432 17.0062L18.2078 17.3484C19.6619 15.7987 20.5508 13.7307 20.5508 11.4593H20.0508ZM11.6504 3.25C16.2951 3.25 20.0508 6.93068 20.0508 11.4593H20.5508C20.5508 6.64407 16.5606 2.75 11.6504 2.75V3.25ZM19.218 11.4591C19.218 7.36344 15.8244 4.05273 11.65 4.05273V4.55273C15.5589 4.55273 18.718 7.65006 18.718 11.4591H19.218ZM11.65 18.8655C15.8244 18.8655 19.218 15.5548 19.218 11.4591H18.718C18.718 15.2682 15.5589 18.3655 11.65 18.3655V18.8655ZM4.08203 11.4591C4.08203 15.5548 7.47563 18.8655 11.65 18.8655V18.3655C7.74119 18.3655 4.58203 15.2682 4.58203 11.4591H4.08203ZM11.65 4.05273C7.47563 4.05273 4.08203 7.36344 4.08203 11.4591H4.58203C4.58203 7.65006 7.74119 4.55273 11.65 4.55273V4.05273Z" fill="black"/>
</svg>
